<svg width="34" height="42" viewBox="0 0 34 42" fill="none" xmlns="http://www.w3.org/2000/svg">
<g filter="url(#filter0_d_50_56)">
<path d="M32.66 3.946C33.301 4.375 33.356 5.278 32.81 5.823L28.126 10.508C27.702 10.931 27.045 10.998 26.512 10.725C24.937 9.918 23.151 9.463 21.259 9.463C14.886 9.463 9.71997 14.629 9.71997 21.001C9.71997 22.893 10.176 24.679 10.983 26.255C11.256 26.788 11.189 27.444 10.766 27.868L6.08099 32.552C5.53599 33.098 4.63301 33.043 4.20401 32.402C2.02001 29.142 0.746002 25.22 0.746002 21.001C0.746002 9.67201 9.92997 0.487999 21.259 0.487999C25.478 0.487999 29.399 1.762 32.66 3.946Z" fill="#B7B8C2"/>
<path d="M32.66 3.946C33.301 4.375 33.356 5.278 32.81 5.823L28.126 10.508C27.702 10.931 27.045 10.998 26.512 10.725C24.937 9.918 23.151 9.463 21.259 9.463C14.886 9.463 9.71997 14.629 9.71997 21.001C9.71997 22.893 10.176 24.679 10.983 26.255C11.256 26.788 11.189 27.444 10.766 27.868L6.08099 32.552C5.53599 33.098 4.63301 33.043 4.20401 32.402C2.02001 29.142 0.746002 25.22 0.746002 21.001C0.746002 9.67201 9.92997 0.487999 21.259 0.487999C25.478 0.487999 29.399 1.762 32.66 3.946Z" fill="url(#paint0_linear_50_56)" fill-opacity="0.19"/>
<g filter="url(#filter1_i_50_56)">
<path d="M27.671 21.004C27.671 24.544 24.801 27.414 21.26 27.414C17.72 27.414 14.85 24.544 14.85 21.004C14.85 17.464 17.72 14.594 21.26 14.594C24.801 14.594 27.671 17.464 27.671 21.004Z" fill="#131316"/>
<path d="M27.671 21.004C27.671 24.544 24.801 27.414 21.26 27.414C17.72 27.414 14.85 24.544 14.85 21.004C14.85 17.464 17.72 14.594 21.26 14.594C24.801 14.594 27.671 17.464 27.671 21.004Z" fill="url(#paint1_linear_50_56)" fill-opacity="0.11"/>
<path d="M32.812 36.181C33.357 36.727 33.302 37.63 32.661 38.059C29.401 40.243 25.479 41.517 21.26 41.517C17.041 41.517 13.12 40.243 9.85899 38.059C9.21799 37.63 9.16397 36.727 9.70897 36.181L14.394 31.497C14.817 31.074 15.474 31.007 16.007 31.28C17.582 32.087 19.368 32.542 21.26 32.542C23.152 32.542 24.938 32.087 26.514 31.28C27.047 31.007 27.704 31.074 28.127 31.497L32.812 36.181Z" fill="#131316"/>
<path d="M32.812 36.181C33.357 36.727 33.302 37.63 32.661 38.059C29.401 40.243 25.479 41.517 21.26 41.517C17.041 41.517 13.12 40.243 9.85899 38.059C9.21799 37.63 9.16397 36.727 9.70897 36.181L14.394 31.497C14.817 31.074 15.474 31.007 16.007 31.28C17.582 32.087 19.368 32.542 21.26 32.542C23.152 32.542 24.938 32.087 26.514 31.28C27.047 31.007 27.704 31.074 28.127 31.497L32.812 36.181Z" fill="url(#paint2_linear_50_56)" fill-opacity="0.11"/>
</g>
</g>
<defs>
<filter id="filter0_d_50_56" x="0.746002" y="0.487999" width="32.4386" height="41.2598" filterUnits="userSpaceOnUse" color-interpolation-filters="sRGB">
<feFlood flood-opacity="0" result="BackgroundImageFix"/>
<feColorMatrix in="SourceAlpha" type="matrix" values="0 0 0 0 0 0 0 0 0 0 0 0 0 0 0 0 0 0 127 0" result="hardAlpha"/>
<feOffset dy="0.230769"/>
<feComposite in2="hardAlpha" operator="out"/>
<feColorMatrix type="matrix" values="0 0 0 0 1 0 0 0 0 1 0 0 0 0 1 0 0 0 1 0"/>
<feBlend mode="normal" in2="BackgroundImageFix" result="effect1_dropShadow_50_56"/>
<feBlend mode="normal" in="SourceGraphic" in2="effect1_dropShadow_50_56" result="shape"/>
</filter>
<filter id="filter1_i_50_56" x="9.33594" y="14.594" width="23.8487" height="27.0384" filterUnits="userSpaceOnUse" color-interpolation-filters="sRGB">
<feFlood flood-opacity="0" result="BackgroundImageFix"/>
<feBlend mode="normal" in="SourceGraphic" in2="BackgroundImageFix" result="shape"/>
<feColorMatrix in="SourceAlpha" type="matrix" values="0 0 0 0 0 0 0 0 0 0 0 0 0 0 0 0 0 0 127 0" result="hardAlpha"/>
<feOffset dy="0.230769"/>
<feGaussianBlur stdDeviation="0.0576923"/>
<feComposite in2="hardAlpha" operator="arithmetic" k2="-1" k3="1"/>
<feColorMatrix type="matrix" values="0 0 0 0 1 0 0 0 0 1 0 0 0 0 1 0 0 0 0.18 0"/>
<feBlend mode="normal" in2="shape" result="effect1_innerShadow_50_56"/>
</filter>
<linearGradient id="paint0_linear_50_56" x1="17.292" y1="0.487999" x2="17.292" y2="33.58" gradientUnits="userSpaceOnUse">
<stop stop-opacity="0"/>
<stop offset="1"/>
</linearGradient>
<linearGradient id="paint1_linear_50_56" x1="21.26" y1="14.594" x2="21.26" y2="41.517" gradientUnits="userSpaceOnUse">
<stop stop-color="white"/>
<stop offset="1" stop-color="white" stop-opacity="0"/>
</linearGradient>
<linearGradient id="paint2_linear_50_56" x1="21.26" y1="14.594" x2="21.26" y2="41.517" gradientUnits="userSpaceOnUse">
<stop stop-color="white"/>
<stop offset="1" stop-color="white" stop-opacity="0"/>
</linearGradient>
</defs>
</svg>
