<svg width="12" height="14" viewBox="0 0 12 14" fill="none" xmlns="http://www.w3.org/2000/svg">
<path fill-rule="evenodd" clip-rule="evenodd" d="M0.875 12.688V1.312H0.6562C0.4822 1.312 0.3153 1.243 0.1922 1.12C0.0690997 0.997003 0 0.829998 0 0.655998C0 0.481998 0.0690997 0.315001 0.1922 0.192001C0.3153 0.0690013 0.4822 0 0.6562 0H11.3438C11.5178 0 11.6847 0.0690013 11.8078 0.192001C11.9309 0.315001 12 0.481998 12 0.655998C12 0.829998 11.9309 0.997003 11.8078 1.12C11.6847 1.243 11.5178 1.312 11.3438 1.312H11.125V12.688H11.3438C11.5178 12.688 11.6847 12.757 11.8078 12.88C11.9309 13.003 12 13.17 12 13.344C12 13.518 11.9309 13.685 11.8078 13.808C11.6847 13.931 11.5178 14 11.3438 14H8.4023C8.2283 14 8.0614 13.931 7.9383 13.808C7.8152 13.685 7.7461 13.518 7.7461 13.344V11.156C7.7461 10.982 7.677 10.815 7.5539 10.692C7.4308 10.569 7.2639 10.5 7.0898 10.5H4.9023C4.7283 10.5 4.5614 10.569 4.4383 10.692C4.3152 10.815 4.2461 10.982 4.2461 11.156V13.344C4.2461 13.518 4.177 13.685 4.0539 13.808C3.9308 13.931 3.7639 14 3.5898 14H0.6562C0.4822 14 0.3153 13.931 0.1922 13.808C0.0690997 13.685 0 13.518 0 13.344C0 13.17 0.0690997 13.003 0.1922 12.88C0.3153 12.757 0.4822 12.688 0.6562 12.688H0.875ZM3.3711 3.062C3.3711 2.946 3.4172 2.835 3.4992 2.753C3.5813 2.671 3.6926 2.625 3.8086 2.625H4.6836C4.7996 2.625 4.9109 2.671 4.993 2.753C5.075 2.835 5.1211 2.946 5.1211 3.062V3.938C5.1211 4.054 5.075 4.165 4.993 4.247C4.9109 4.329 4.7996 4.375 4.6836 4.375H3.8086C3.6926 4.375 3.5813 4.329 3.4992 4.247C3.4172 4.165 3.3711 4.054 3.3711 3.938V3.062ZM3.8086 6.125C3.6926 6.125 3.5813 6.17101 3.4992 6.25301C3.4172 6.33501 3.3711 6.446 3.3711 6.562V7.438C3.3711 7.554 3.4172 7.66499 3.4992 7.74699C3.5813 7.82899 3.6926 7.875 3.8086 7.875H4.6836C4.7996 7.875 4.9109 7.82899 4.993 7.74699C5.075 7.66499 5.1211 7.554 5.1211 7.438V6.562C5.1211 6.446 5.075 6.33501 4.993 6.25301C4.9109 6.17101 4.7996 6.125 4.6836 6.125H3.8086ZM6.8711 3.062C6.8711 2.946 6.9172 2.835 6.9992 2.753C7.0813 2.671 7.1926 2.625 7.3086 2.625H8.1836C8.2996 2.625 8.4109 2.671 8.493 2.753C8.575 2.835 8.6211 2.946 8.6211 3.062V3.938C8.6211 4.054 8.575 4.165 8.493 4.247C8.4109 4.329 8.2996 4.375 8.1836 4.375H7.3086C7.1926 4.375 7.0813 4.329 6.9992 4.247C6.9172 4.165 6.8711 4.054 6.8711 3.938V3.062ZM7.3086 6.125C7.1926 6.125 7.0813 6.17101 6.9992 6.25301C6.9172 6.33501 6.8711 6.446 6.8711 6.562V7.438C6.8711 7.554 6.9172 7.66499 6.9992 7.74699C7.0813 7.82899 7.1926 7.875 7.3086 7.875H8.1836C8.2996 7.875 8.4109 7.82899 8.493 7.74699C8.575 7.66499 8.6211 7.554 8.6211 7.438V6.562C8.6211 6.446 8.575 6.33501 8.493 6.25301C8.4109 6.17101 8.2996 6.125 8.1836 6.125H7.3086Z" fill="#2F3037"/>
</svg>
