<svg width="14" height="12" viewBox="0 0 14 12" fill="none" xmlns="http://www.w3.org/2000/svg">
<path d="M8.16667 3.035C8.16667 4.538 6.94787 6.30099 5.44437 6.30099C3.94097 6.30099 2.72217 4.538 2.72217 3.035C2.72217 1.531 3.94097 0.311996 5.44437 0.311996C6.94787 0.311996 8.16667 1.531 8.16667 3.035Z" fill="#747686"/>
<path d="M0 10.736C0 9.93899 0.119901 8.932 0.796101 8.093C1.3583 7.395 2.0254 6.97699 2.7222 6.84599C3.7877 6.64499 4.3603 7.38999 5.4444 7.38999C6.5286 7.38999 7.1012 6.64499 8.1667 6.84599C8.8635 6.97699 9.5306 7.395 10.0928 8.093C10.769 8.932 10.8889 9.93899 10.8889 10.736C10.8889 11.261 10.4638 11.688 9.9382 11.688C8.7964 11.688 6.8586 11.688 5.4444 11.688C4.0303 11.688 2.0925 11.688 0.950699 11.688C0.425099 11.688 0 11.261 0 10.736Z" fill="#747686"/>
<path d="M7.98161 5.71201C7.89421 5.82301 7.80011 5.932 7.69971 6.036C7.88931 6.028 8.09271 6.04099 8.31041 6.08099C8.51901 6.12099 8.72001 6.18601 8.91091 6.26801C10.2464 6.02101 11.2778 4.418 11.2778 3.035C11.2778 1.531 10.059 0.311996 8.55561 0.311996C8.28511 0.311996 8.02381 0.352003 7.77721 0.425003C8.49361 1.066 8.94441 1.998 8.94441 3.035C8.94441 3.98 8.56881 4.96201 7.98161 5.71201Z" fill="#747686"/>
<path d="M11.3818 11.688C11.5619 11.414 11.6667 11.087 11.6667 10.736C11.6667 9.79399 11.5146 8.527 10.6484 7.549C10.4373 7.31 10.2706 7.178 10.0503 6.994C10.4207 6.856 10.7996 6.75599 11.2778 6.84599C11.9746 6.97699 12.6417 7.395 13.2039 8.093C13.8801 8.932 14 9.93899 14 10.736C14 11.261 13.5749 11.688 13.0493 11.688H11.3818Z" fill="#747686"/>
</svg>
