<svg width="12" height="14" viewBox="0 0 12 14" fill="none" xmlns="http://www.w3.org/2000/svg">
<path fill-rule="evenodd" clip-rule="evenodd" d="M11.7477 1.909C11.7932 1.931 11.8351 1.959 11.8716 1.993C11.9604 2.075 12.0114 2.18599 11.9978 2.30299V6.35699C11.9978 7.83399 11.5751 9.267 10.7705 10.504C9.7816 12.024 6.993 13.542 6.2078 13.949C6.0767 14.017 5.9234 14.017 5.7923 13.949C5.0066 13.542 2.2162 12.024 1.2273 10.504C0.426399 9.267 0 7.83399 0 6.35699V2.30299C0 2.18899 0.0514018 2.075 0.139702 1.993C0.179802 1.955 0.226299 1.92501 0.276699 1.90401C0.337599 1.87701 0.404801 1.86301 0.474201 1.86301H0.501202C2.6629 1.86301 4.6334 1.208 5.6494 0.149002C5.6972 0.0990021 5.7544 0.0609955 5.8175 0.0359955C5.8756 0.0119955 5.9387 0 6.0041 0C6.1407 0 6.27 0.0540021 6.3588 0.149002C7.3748 1.205 9.3489 1.86301 11.507 1.86301H11.534C11.6102 1.86301 11.6828 1.879 11.7477 1.909ZM9.0531 5.007C9.3329 4.701 9.312 4.22701 9.0066 3.94701C8.7011 3.66701 8.2267 3.688 7.9469 3.993C7.0468 4.976 6.5841 5.617 5.9339 6.78C5.7157 7.171 5.4923 7.65601 5.3076 8.08501L4.0665 6.65401C3.795 6.34201 3.3214 6.30799 3.0085 6.57899C2.6956 6.85099 2.6621 7.32499 2.9335 7.63699L4.976 9.992C5.1492 10.191 5.4147 10.285 5.6748 10.238C5.935 10.192 6.1516 10.011 6.2446 9.76401L6.2457 9.761L6.25 9.75L6.2675 9.70399C6.283 9.66299 6.3059 9.604 6.335 9.53C6.3932 9.382 6.4759 9.175 6.5735 8.942C6.7716 8.468 7.0198 7.91199 7.2433 7.51199C7.8369 6.44999 8.2313 5.904 9.0531 5.007Z" fill="#747686"/>
</svg>
