<svg width="8" height="12" viewBox="0 0 8 12" fill="none" xmlns="http://www.w3.org/2000/svg">
<path d="M1.52999 7.21999C1.23699 6.92699 0.762994 6.92699 0.469994 7.21999C0.176994 7.51299 0.176994 7.98705 0.469994 8.28005L3.46999 11.2801C3.76299 11.5731 4.23699 11.5731 4.52999 11.2801L7.52999 8.28005C7.82299 7.98705 7.82299 7.51299 7.52999 7.21999C7.23699 6.92699 6.76299 6.92699 6.46999 7.21999L3.99999 9.68905L1.52999 7.21999Z" fill="#9394A1"/>
<path d="M1.52999 4.78005C1.23699 5.07305 0.762994 5.07305 0.469994 4.78005C0.176994 4.48705 0.176994 4.01299 0.469994 3.71999L3.46999 0.719994C3.76299 0.426994 4.23699 0.426994 4.52999 0.719994L7.52999 3.71999C7.82299 4.01299 7.82299 4.48705 7.52999 4.78005C7.23699 5.07305 6.76299 5.07305 6.46999 4.78005L3.99999 2.311L1.52999 4.78005Z" fill="#9394A1"/>
</svg>
