<svg width="16" height="18" viewBox="0 0 16 18" fill="none" xmlns="http://www.w3.org/2000/svg">
<path fill-rule="evenodd" clip-rule="evenodd" d="M1.25 16.3125V1.6875H0.9688C0.745 1.6875 0.530401 1.5986 0.372101 1.4404C0.213901 1.2821 0.125 1.0675 0.125 0.8438C0.125 0.62 0.213901 0.405401 0.372101 0.247101C0.530401 0.0889008 0.745 0 0.9688 0H15.0312C15.255 0 15.4696 0.0889008 15.6279 0.247101C15.7861 0.405401 15.875 0.62 15.875 0.8438C15.875 1.0675 15.7861 1.2821 15.6279 1.4404C15.4696 1.5986 15.255 1.6875 15.0312 1.6875H14.75V16.3125H15.0312C15.255 16.3125 15.4696 16.4014 15.6279 16.5596C15.7861 16.7179 15.875 16.9325 15.875 17.1562C15.875 17.38 15.7861 17.5946 15.6279 17.7529C15.4696 17.9111 15.255 18 15.0312 18H11.0938C10.87 18 10.6554 17.9111 10.4971 17.7529C10.3389 17.5946 10.25 17.38 10.25 17.1562V14.3438C10.25 14.12 10.1611 13.9054 10.0029 13.7471C9.8446 13.5889 9.63 13.5 9.4062 13.5H6.5938C6.37 13.5 6.1554 13.5889 5.9971 13.7471C5.8389 13.9054 5.75 14.12 5.75 14.3438V17.1562C5.75 17.38 5.6611 17.5946 5.5029 17.7529C5.3446 17.9111 5.13 18 4.9062 18H0.9688C0.745 18 0.530401 17.9111 0.372101 17.7529C0.213901 17.5946 0.125 17.38 0.125 17.1562C0.125 16.9325 0.213901 16.7179 0.372101 16.5596C0.530401 16.4014 0.745 16.3125 0.9688 16.3125H1.25ZM4.625 3.9375C4.625 3.7883 4.6843 3.6452 4.7898 3.5398C4.8952 3.4343 5.0383 3.375 5.1875 3.375H6.3125C6.4617 3.375 6.6048 3.4343 6.7102 3.5398C6.8157 3.6452 6.875 3.7883 6.875 3.9375V5.0625C6.875 5.2117 6.8157 5.3548 6.7102 5.4602C6.6048 5.5657 6.4617 5.625 6.3125 5.625H5.1875C5.0383 5.625 4.8952 5.5657 4.7898 5.4602C4.6843 5.3548 4.625 5.2117 4.625 5.0625V3.9375ZM5.1875 7.875C5.0383 7.875 4.8952 7.9343 4.7898 8.0398C4.6843 8.1452 4.625 8.2883 4.625 8.4375V9.5625C4.625 9.7117 4.6843 9.8548 4.7898 9.9602C4.8952 10.0657 5.0383 10.125 5.1875 10.125H6.3125C6.4617 10.125 6.6048 10.0657 6.7102 9.9602C6.8157 9.8548 6.875 9.7117 6.875 9.5625V8.4375C6.875 8.2883 6.8157 8.1452 6.7102 8.0398C6.6048 7.9343 6.4617 7.875 6.3125 7.875H5.1875ZM9.125 3.9375C9.125 3.7883 9.1843 3.6452 9.2898 3.5398C9.3952 3.4343 9.5383 3.375 9.6875 3.375H10.8125C10.9617 3.375 11.1048 3.4343 11.2102 3.5398C11.3157 3.6452 11.375 3.7883 11.375 3.9375V5.0625C11.375 5.2117 11.3157 5.3548 11.2102 5.4602C11.1048 5.5657 10.9617 5.625 10.8125 5.625H9.6875C9.5383 5.625 9.3952 5.5657 9.2898 5.4602C9.1843 5.3548 9.125 5.2117 9.125 5.0625V3.9375ZM9.6875 7.875C9.5383 7.875 9.3952 7.9343 9.2898 8.0398C9.1843 8.1452 9.125 8.2883 9.125 8.4375V9.5625C9.125 9.7117 9.1843 9.8548 9.2898 9.9602C9.3952 10.0657 9.5383 10.125 9.6875 10.125H10.8125C10.9617 10.125 11.1048 10.0657 11.2102 9.9602C11.3157 9.8548 11.375 9.7117 11.375 9.5625V8.4375C11.375 8.2883 11.3157 8.1452 11.2102 8.0398C11.1048 7.9343 10.9617 7.875 10.8125 7.875H9.6875Z" fill="#5E5F6E"/>
</svg>
