<svg width="17" height="16" viewBox="0 0 17 16" fill="none" xmlns="http://www.w3.org/2000/svg">
<mask id="mask0_1_35" style="mask-type:luminance" maskUnits="userSpaceOnUse" x="0" y="0" width="17" height="16">
<path d="M16.333 0H0.333008V16H16.333V0Z" fill="white"/>
</mask>
<g mask="url(#mask0_1_35)">
<path d="M8.33301 0.197998C3.91301 0.197998 0.333008 3.78 0.333008 8.198C0.333008 11.733 2.62501 14.731 5.80301 15.788C6.20301 15.863 6.35001 15.616 6.35001 15.403C6.35001 15.213 6.343 14.71 6.34 14.043C4.114 14.526 3.64499 12.97 3.64499 12.97C3.28099 12.047 2.755 11.8 2.755 11.8C2.03 11.304 2.811 11.314 2.811 11.314C3.614 11.37 4.03601 12.138 4.03601 12.138C4.75001 13.361 5.909 13.008 6.366 12.803C6.438 12.286 6.64399 11.933 6.87299 11.733C5.09599 11.533 3.229 10.845 3.229 7.78C3.229 6.907 3.539 6.193 4.052 5.633C3.962 5.431 3.69201 4.61801 4.12201 3.51601C4.12201 3.51601 4.79199 3.301 6.32199 4.336C6.96199 4.158 7.64199 4.06999 8.32199 4.06599C9.00199 4.06999 9.68199 4.158 10.322 4.336C11.842 3.301 12.512 3.51601 12.512 3.51601C12.942 4.61801 12.672 5.431 12.592 5.633C13.102 6.193 13.412 6.907 13.412 7.78C13.412 10.853 11.542 11.53 9.76199 11.727C10.042 11.967 10.302 12.457 10.302 13.207C10.302 14.277 10.292 15.137 10.292 15.397C10.292 15.607 10.432 15.857 10.842 15.777C14.043 14.728 16.333 11.728 16.333 8.198C16.333 3.78 12.751 0.197998 8.33301 0.197998Z" fill="#42434D"/>
</g>
</svg>
