<svg width="17" height="16" viewBox="0 0 17 16" fill="none" xmlns="http://www.w3.org/2000/svg">
<mask id="mask0_1_17" style="mask-type:luminance" maskUnits="userSpaceOnUse" x="0" y="0" width="17" height="16">
<path d="M16.667 0H0.666992V16H16.667V0Z" fill="white"/>
</mask>
<g mask="url(#mask0_1_17)">
<path d="M0.671983 8.00998C0.511983 3.88598 4.19899 0.0739831 8.41299 0.0249831C10.561 -0.155017 12.65 0.661984 14.276 1.99498C13.609 2.71298 12.931 3.42299 12.206 4.08799C10.775 3.23599 9.05198 2.58699 7.37998 3.16399C4.68298 3.91599 3.04898 7.03598 4.04698 9.62198C4.87398 12.322 8.22598 13.804 10.853 12.669C12.213 12.192 13.11 10.962 13.504 9.641C11.945 9.611 10.385 9.63 8.82598 9.587C8.82298 8.679 8.81898 7.77299 8.82298 6.86499C11.422 6.86099 14.026 6.853 16.63 6.876C16.79 9.103 16.455 11.486 14.977 13.273C12.954 15.824 9.21599 16.573 6.17499 15.572C2.94799 14.533 0.600983 11.348 0.671983 8.00998Z" fill="#42434D"/>
</g>
</svg>
