<svg width="64" height="64" viewBox="0 0 64 64" fill="none" xmlns="http://www.w3.org/2000/svg">
<path d="M58 0.5H6C2.96243 0.5 0.5 2.96243 0.5 6V58C0.5 61.0376 2.96243 63.5 6 63.5H58C61.0376 63.5 63.5 61.0376 63.5 58V6C63.5 2.96243 61.0376 0.5 58 0.5Z" fill="#F7F7F8"/>
<path d="M58 0.5H6C2.96243 0.5 0.5 2.96243 0.5 6V58C0.5 61.0376 2.96243 63.5 6 63.5H58C61.0376 63.5 63.5 61.0376 63.5 58V6C63.5 2.96243 61.0376 0.5 58 0.5Z" stroke="#D9D9DE" stroke-dasharray="4 4"/>
<path d="M31.2501 35.25C31.2501 35.449 31.3291 35.64 31.4698 35.78C31.6104 35.921 31.8012 36 32.0001 36C32.199 36 32.3898 35.921 32.5304 35.78C32.6711 35.64 32.7501 35.449 32.7501 35.25V26.636L35.7051 29.765C35.8428 29.905 36.0298 29.985 36.2259 29.988C36.4221 29.992 36.6118 29.918 36.7544 29.784C36.897 29.649 36.9811 29.464 36.9887 29.268C36.9963 29.072 36.9268 28.88 36.7951 28.735L32.5451 24.235C32.475 24.161 32.3905 24.102 32.2968 24.061C32.2031 24.021 32.1022 24 32.0001 24C31.8981 24 31.7971 24.021 31.7034 24.061C31.6097 24.102 31.5252 24.161 31.4551 24.235L27.2051 28.735C27.135 28.806 27.0799 28.89 27.0428 28.983C27.0058 29.076 26.9876 29.175 26.9894 29.275C26.9911 29.375 27.0128 29.473 27.0531 29.564C27.0935 29.656 27.1516 29.738 27.2241 29.807C27.2967 29.875 27.3822 29.929 27.4757 29.964C27.5691 29.999 27.6686 30.015 27.7684 30.011C27.8681 30.007 27.9661 29.983 28.0565 29.941C28.147 29.899 28.2281 29.839 28.2951 29.765L31.2501 26.636V35.25Z" fill="#9394A1"/>
<path d="M25.5 34.75C25.5 34.551 25.421 34.36 25.2803 34.22C25.1397 34.079 24.9489 34 24.75 34C24.5511 34 24.3603 34.079 24.2197 34.22C24.079 34.36 24 34.551 24 34.75V37.25C24 37.979 24.2897 38.679 24.8055 39.195C25.3212 39.71 26.0207 40 26.75 40H37.25C37.9793 40 38.6788 39.71 39.1945 39.195C39.7103 38.679 40 37.979 40 37.25V34.75C40 34.551 39.921 34.36 39.7803 34.22C39.6397 34.079 39.4489 34 39.25 34C39.0511 34 38.8603 34.079 38.7197 34.22C38.579 34.36 38.5 34.551 38.5 34.75V37.25C38.5 37.94 37.94 38.5 37.25 38.5H26.75C26.06 38.5 25.5 37.94 25.5 37.25V34.75Z" fill="#9394A1"/>
</svg>
