<svg width="24" height="24" viewBox="0 0 24 24" fill="none" xmlns="http://www.w3.org/2000/svg">
<path d="M12 23.5C18.3513 23.5 23.5 18.3513 23.5 12C23.5 5.64873 18.3513 0.5 12 0.5C5.64873 0.5 0.5 5.64873 0.5 12C0.5 18.3513 5.64873 23.5 12 23.5Z" fill="#F7F7F8" stroke="#D9D9DE" stroke-dasharray="2 2"/>
<path d="M12.75 7.75C12.75 7.551 12.671 7.36 12.5303 7.22C12.3897 7.079 12.1989 7 12 7C11.8011 7 11.6103 7.079 11.4697 7.22C11.329 7.36 11.25 7.551 11.25 7.75V11.25H7.75C7.5511 11.25 7.3603 11.329 7.2197 11.47C7.079 11.61 7 11.801 7 12C7 12.199 7.079 12.39 7.2197 12.53C7.3603 12.671 7.5511 12.75 7.75 12.75H11.25V16.25C11.25 16.449 11.329 16.64 11.4697 16.78C11.6103 16.921 11.8011 17 12 17C12.1989 17 12.3897 16.921 12.5303 16.78C12.671 16.64 12.75 16.449 12.75 16.25V12.75H16.25C16.4489 12.75 16.6397 12.671 16.7803 12.53C16.921 12.39 17 12.199 17 12C17 11.801 16.921 11.61 16.7803 11.47C16.6397 11.329 16.4489 11.25 16.25 11.25H12.75V7.75Z" fill="#9394A1"/>
</svg>
