<svg width="12" height="12" viewBox="0 0 12 12" fill="none" xmlns="http://www.w3.org/2000/svg">
<path fill-rule="evenodd" clip-rule="evenodd" d="M4.55899 0.536003C4.58899 0.385003 4.671 0.249001 4.79 0.151001C4.909 0.054001 5.05799 0 5.21199 0H6.786C6.94 0 7.08899 0.054001 7.20799 0.151001C7.32699 0.249001 7.409 0.385003 7.439 0.536003L7.66 1.637C8.125 1.815 8.55999 2.066 8.94599 2.381L10.011 2.021C10.157 1.971 10.316 1.974 10.46 2.028C10.604 2.083 10.725 2.185 10.802 2.319L11.588 3.681C11.666 3.815 11.694 3.971 11.669 4.123C11.644 4.275 11.567 4.414 11.452 4.515L10.607 5.257C10.686 5.749 10.686 6.251 10.607 6.743L11.452 7.485C11.567 7.586 11.644 7.725 11.669 7.877C11.694 8.029 11.666 8.185 11.589 8.318L10.802 9.681C10.725 9.815 10.604 9.918 10.46 9.972C10.316 10.026 10.157 10.029 10.011 9.979L8.94599 9.619C8.55999 9.934 8.125 10.185 7.66 10.363L7.44 11.464C7.41 11.615 7.32799 11.751 7.20899 11.849C7.08999 11.946 6.94 12 6.786 12H5.21199C5.05799 12 4.909 11.946 4.79 11.849C4.671 11.751 4.58899 11.615 4.55899 11.464L4.33799 10.363C3.87299 10.185 3.439 9.934 3.052 9.619L1.98699 9.979C1.84099 10.029 1.683 10.026 1.538 9.972C1.394 9.917 1.27299 9.815 1.19599 9.681L0.409999 8.319C0.332999 8.185 0.303997 8.029 0.328997 7.877C0.353997 7.725 0.430992 7.586 0.545992 7.485L1.39099 6.742C1.31199 6.25 1.31199 5.749 1.39099 5.257L0.545992 4.515C0.430992 4.414 0.353997 4.275 0.328997 4.123C0.303997 3.971 0.331991 3.815 0.408991 3.682L1.19599 2.319C1.27299 2.185 1.394 2.082 1.538 2.028C1.682 1.974 1.84099 1.971 1.98699 2.021L3.052 2.381C3.439 2.066 3.87299 1.815 4.33899 1.637L4.55899 0.536003ZM5.999 8C6.53 8 7.038 7.789 7.413 7.414C7.788 7.039 7.999 6.53 7.999 6C7.999 5.47 7.788 4.961 7.413 4.586C7.038 4.211 6.53 4 5.999 4C5.469 4 4.95999 4.211 4.58499 4.586C4.20999 4.961 3.999 5.47 3.999 6C3.999 6.53 4.20999 7.039 4.58499 7.414C4.95999 7.789 5.469 8 5.999 8Z" fill="#42434D"/>
</svg>
