<svg width="14" height="14" viewBox="0 0 14 14" fill="none" xmlns="http://www.w3.org/2000/svg">
<path d="M13.499 7.14597C13.499 6.69497 13.463 6.24097 13.385 5.79797H7.12903V8.35196H10.711C10.563 9.17596 10.085 9.90397 9.38602 10.367V12.024H11.523C12.778 10.869 13.499 9.16297 13.499 7.14597Z" fill="#4285F4"/>
<path d="M7.13 13.628C8.919 13.628 10.427 13.041 11.526 12.027L9.38901 10.37C8.79401 10.774 8.02699 11.003 7.13199 11.003C5.40199 11.003 3.935 9.83597 3.409 8.26697H1.203V9.97498C2.329 12.215 4.622 13.628 7.13 13.628Z" fill="#34A853"/>
<path d="M3.409 8.26398C3.131 7.44098 3.131 6.54898 3.409 5.72498V4.01697H1.20599C0.264994 5.89097 0.264994 8.09896 1.20599 9.97296L3.409 8.26398Z" fill="#FBBC04"/>
<path d="M7.13 2.98506C8.076 2.97106 8.98901 3.32708 9.67401 3.98008L11.568 2.08607C10.369 0.960072 8.777 0.341066 7.13 0.361066C4.622 0.361066 2.329 1.77406 1.203 4.01606L3.40601 5.72508C3.93001 4.15308 5.4 2.98506 7.13 2.98506Z" fill="#EA4335"/>
</svg>
