<svg width="123" height="14" viewBox="0 0 123 14" fill="none" xmlns="http://www.w3.org/2000/svg">
<path d="M3.80901 11.205C3.17201 11.205 2.617 11.105 2.145 10.906C1.672 10.703 1.29899 10.422 1.02499 10.062C0.751994 9.70301 0.596007 9.287 0.557007 8.814L0.550995 8.73801H1.84599L1.85201 8.80301C1.87901 9.05701 1.97899 9.277 2.14999 9.465C2.32599 9.652 2.561 9.79899 2.854 9.90399C3.15 10.01 3.488 10.062 3.867 10.062C4.223 10.062 4.53899 10.006 4.81599 9.89301C5.09399 9.77901 5.311 9.62301 5.467 9.42401C5.627 9.22501 5.707 8.99601 5.707 8.73801V8.73199C5.707 8.40799 5.584 8.13901 5.338 7.92401C5.092 7.70901 4.689 7.54101 4.131 7.42001L3.205 7.22699C2.35 7.04299 1.727 6.752 1.336 6.354C0.944999 5.951 0.75 5.43801 0.75 4.81201V4.80701C0.754 4.31801 0.885005 3.88901 1.14301 3.51801C1.40401 3.14601 1.76601 2.85699 2.22701 2.64999C2.68801 2.44299 3.217 2.34 3.814 2.34C4.412 2.34 4.934 2.44299 5.379 2.64999C5.828 2.85399 6.182 3.13099 6.439 3.48199C6.701 3.83399 6.848 4.23 6.879 4.672L6.88499 4.74799H5.60201L5.59 4.672C5.555 4.441 5.45899 4.23601 5.30299 4.05701C5.14999 3.87701 4.945 3.73601 4.688 3.63501C4.434 3.52901 4.137 3.47899 3.797 3.48199C3.469 3.48199 3.176 3.53301 2.918 3.63501C2.66 3.73201 2.45499 3.87501 2.30299 4.06201C2.15399 4.25001 2.08 4.477 2.08 4.742V4.74799C2.08 5.06099 2.199 5.32199 2.438 5.53299C2.68 5.73999 3.07201 5.90199 3.61501 6.01999L4.541 6.22501C5.428 6.41201 6.064 6.69299 6.451 7.06799C6.842 7.44299 7.037 7.94299 7.037 8.56799V8.57401C7.037 9.11301 6.90401 9.58001 6.63901 9.97501C6.37701 10.365 6.004 10.668 5.52 10.883C5.035 11.098 4.46501 11.205 3.80901 11.205ZM11.291 11.123C10.67 11.123 10.137 10.99 9.69099 10.725C9.24599 10.455 8.902 10.074 8.66 9.582C8.422 9.09 8.30299 8.508 8.30299 7.836V7.82999C8.30299 7.16599 8.422 6.586 8.66 6.09C8.902 5.594 9.24199 5.20699 9.67999 4.92999C10.121 4.65199 10.637 4.51401 11.227 4.51401C11.82 4.51401 12.33 4.64599 12.756 4.91199C13.186 5.17799 13.516 5.55101 13.746 6.03101C13.977 6.50801 14.092 7.066 14.092 7.707V8.15201H8.94701V7.24399H13.459L12.85 8.08801V7.578C12.85 7.125 12.779 6.75 12.639 6.453C12.502 6.152 12.312 5.92799 12.07 5.77899C11.828 5.63099 11.549 5.55701 11.232 5.55701C10.916 5.55701 10.633 5.63499 10.383 5.79099C10.137 5.94299 9.941 6.17001 9.797 6.47101C9.656 6.77101 9.586 7.141 9.586 7.578V8.08801C9.586 8.50601 9.656 8.863 9.797 9.16C9.938 9.457 10.137 9.684 10.395 9.84C10.656 9.996 10.965 10.074 11.32 10.074C11.594 10.074 11.828 10.037 12.023 9.96301C12.223 9.88501 12.385 9.78899 12.51 9.67599C12.639 9.56199 12.727 9.45101 12.773 9.34201L12.797 9.29501H14.027L14.016 9.34799C13.961 9.55899 13.865 9.77001 13.729 9.98001C13.592 10.188 13.41 10.377 13.184 10.549C12.961 10.721 12.691 10.859 12.375 10.965C12.062 11.07 11.701 11.123 11.291 11.123ZM18.281 11.123C17.664 11.123 17.131 10.99 16.682 10.725C16.236 10.455 15.893 10.072 15.65 9.57599C15.408 9.07999 15.287 8.48799 15.287 7.80099V7.789C15.287 7.113 15.406 6.531 15.645 6.043C15.887 5.555 16.23 5.17799 16.676 4.91199C17.125 4.64599 17.658 4.51401 18.275 4.51401C18.811 4.51401 19.27 4.60701 19.652 4.79501C20.039 4.97901 20.346 5.23201 20.572 5.55701C20.803 5.87701 20.947 6.24201 21.006 6.65201L21.012 6.68201H19.787L19.781 6.67001C19.711 6.35701 19.549 6.09799 19.295 5.89099C19.041 5.67999 18.703 5.57401 18.281 5.57401C17.93 5.57401 17.627 5.66399 17.373 5.84399C17.119 6.01999 16.924 6.27301 16.787 6.60501C16.654 6.93801 16.588 7.332 16.588 7.789V7.80099C16.588 8.26999 16.656 8.672 16.793 9.008C16.93 9.344 17.125 9.60399 17.379 9.78699C17.633 9.96699 17.934 10.057 18.281 10.057C18.68 10.057 19.002 9.969 19.248 9.793C19.498 9.617 19.674 9.35701 19.775 9.01401L19.787 8.98401L21.006 8.979L20.994 9.03101C20.92 9.44501 20.77 9.809 20.543 10.121C20.316 10.434 20.014 10.68 19.635 10.859C19.26 11.035 18.809 11.123 18.281 11.123ZM24.568 11.123C24.092 11.123 23.689 11.031 23.361 10.848C23.037 10.66 22.793 10.391 22.629 10.039C22.469 9.684 22.389 9.25601 22.389 8.75601V4.63699H23.66V8.457C23.66 8.98 23.764 9.37301 23.971 9.63501C24.178 9.89601 24.516 10.027 24.984 10.027C25.32 10.027 25.604 9.961 25.834 9.828C26.068 9.691 26.244 9.5 26.361 9.254C26.479 9.004 26.537 8.70899 26.537 8.36899V4.63699H27.814V11H26.537V10.039H26.443C26.291 10.379 26.057 10.645 25.74 10.836C25.424 11.027 25.033 11.123 24.568 11.123ZM29.643 11V4.63699H30.914V5.59799H31.014C31.127 5.25799 31.326 4.99401 31.611 4.80701C31.9 4.61901 32.256 4.52499 32.678 4.52499C32.783 4.52499 32.887 4.531 32.988 4.543C33.09 4.555 33.172 4.56801 33.234 4.58401V5.75601C33.121 5.73201 33.008 5.715 32.895 5.703C32.785 5.691 32.67 5.686 32.549 5.686C32.225 5.686 31.939 5.74799 31.693 5.87299C31.451 5.99799 31.26 6.17399 31.119 6.39999C30.982 6.62299 30.914 6.88899 30.914 7.19699V11H29.643ZM36.967 11.123C36.346 11.123 35.812 10.99 35.367 10.725C34.922 10.455 34.578 10.074 34.336 9.582C34.098 9.09 33.979 8.508 33.979 7.836V7.82999C33.979 7.16599 34.098 6.586 34.336 6.09C34.578 5.594 34.918 5.20699 35.355 4.92999C35.797 4.65199 36.312 4.51401 36.902 4.51401C37.496 4.51401 38.006 4.64599 38.432 4.91199C38.861 5.17799 39.191 5.55101 39.422 6.03101C39.652 6.50801 39.768 7.066 39.768 7.707V8.15201H34.623V7.24399H39.135L38.525 8.08801V7.578C38.525 7.125 38.455 6.75 38.314 6.453C38.178 6.152 37.988 5.92799 37.746 5.77899C37.504 5.63099 37.225 5.55701 36.908 5.55701C36.592 5.55701 36.309 5.63499 36.059 5.79099C35.812 5.94299 35.617 6.17001 35.473 6.47101C35.332 6.77101 35.262 7.141 35.262 7.578V8.08801C35.262 8.50601 35.332 8.863 35.473 9.16C35.613 9.457 35.812 9.684 36.07 9.84C36.332 9.996 36.641 10.074 36.996 10.074C37.27 10.074 37.504 10.037 37.699 9.96301C37.898 9.88501 38.061 9.78899 38.186 9.67599C38.314 9.56199 38.402 9.45101 38.449 9.34201L38.473 9.29501H39.703L39.691 9.34799C39.637 9.55899 39.541 9.77001 39.404 9.98001C39.268 10.188 39.086 10.377 38.859 10.549C38.637 10.721 38.367 10.859 38.051 10.965C37.738 11.07 37.377 11.123 36.967 11.123ZM43.6 11.105C43.068 11.105 42.604 10.973 42.205 10.707C41.811 10.438 41.504 10.057 41.285 9.564C41.07 9.072 40.963 8.49201 40.963 7.82401V7.81201C40.963 7.14101 41.07 6.55901 41.285 6.06601C41.5 5.57401 41.805 5.19499 42.199 4.92999C42.594 4.65999 43.061 4.52499 43.6 4.52499C44.037 4.52499 44.43 4.62699 44.777 4.82999C45.129 5.02899 45.389 5.30099 45.557 5.64499H45.65V2.14099H46.928V11H45.65V9.99799H45.557C45.373 10.346 45.113 10.617 44.777 10.812C44.441 11.008 44.049 11.105 43.6 11.105ZM43.963 10.016C44.314 10.016 44.619 9.92801 44.877 9.75201C45.135 9.57601 45.332 9.324 45.469 8.996C45.605 8.664 45.674 8.27301 45.674 7.82401V7.81201C45.674 7.35901 45.604 6.96899 45.463 6.64099C45.326 6.31199 45.129 6.06101 44.871 5.88501C44.617 5.70501 44.314 5.61499 43.963 5.61499C43.611 5.61499 43.307 5.70501 43.049 5.88501C42.795 6.06101 42.6 6.31199 42.463 6.64099C42.33 6.96499 42.264 7.35501 42.264 7.81201V7.82401C42.264 8.27701 42.33 8.668 42.463 8.996C42.6 9.324 42.795 9.57601 43.049 9.75201C43.307 9.92801 43.611 10.016 43.963 10.016ZM55.471 11.105C55.025 11.105 54.635 11.008 54.299 10.812C53.963 10.617 53.701 10.346 53.514 9.99799H53.414V11H52.143V2.14099H53.414V5.64499H53.514C53.682 5.30099 53.939 5.02899 54.287 4.82999C54.639 4.62699 55.033 4.52499 55.471 4.52499C56.01 4.52499 56.477 4.65999 56.871 4.92999C57.266 5.19499 57.57 5.57401 57.785 6.06601C58 6.55901 58.107 7.14101 58.107 7.81201V7.82401C58.107 8.49201 57.998 9.072 57.779 9.564C57.564 10.057 57.26 10.438 56.865 10.707C56.471 10.973 56.006 11.105 55.471 11.105ZM55.107 10.016C55.463 10.016 55.768 9.92801 56.021 9.75201C56.275 9.57601 56.469 9.324 56.602 8.996C56.738 8.668 56.807 8.27701 56.807 7.82401V7.81201C56.807 7.35501 56.738 6.96499 56.602 6.64099C56.469 6.31199 56.275 6.06101 56.021 5.88501C55.768 5.70501 55.463 5.61499 55.107 5.61499C54.756 5.61499 54.451 5.70501 54.193 5.88501C53.936 6.06101 53.738 6.31199 53.602 6.64099C53.465 6.96899 53.396 7.35901 53.396 7.81201V7.82401C53.396 8.27301 53.465 8.664 53.602 8.996C53.738 9.324 53.936 9.57601 54.193 9.75201C54.451 9.92801 54.756 10.016 55.107 10.016ZM59.994 13.238C59.916 13.238 59.832 13.234 59.742 13.227C59.652 13.223 59.566 13.217 59.484 13.209V12.207C59.547 12.215 59.615 12.221 59.689 12.225C59.768 12.229 59.842 12.23 59.912 12.23C60.209 12.23 60.449 12.16 60.633 12.02C60.816 11.883 60.955 11.654 61.049 11.334L61.143 11.006L58.834 4.63699H60.211L62.01 10.373L61.611 9.71701H62.098L61.705 10.373L63.498 4.63699H64.84L62.473 11.24C62.293 11.748 62.094 12.146 61.875 12.436C61.656 12.729 61.396 12.936 61.096 13.057C60.795 13.178 60.428 13.238 59.994 13.238Z" fill="#747686"/>
<path d="M80.889 9.1875C82.0971 9.1875 83.0765 8.20812 83.0765 7C83.0765 5.79188 82.0971 4.8125 80.889 4.8125C79.6809 4.8125 78.7015 5.79188 78.7015 7C78.7015 8.20812 79.6809 9.1875 80.889 9.1875Z" fill="#747686"/>
<path d="M84.831 12.179C85.017 12.365 84.998 12.673 84.779 12.82C83.667 13.565 82.328 14 80.889 14C79.449 14 78.111 13.565 76.998 12.82C76.779 12.673 76.761 12.365 76.947 12.179L78.545 10.581C78.69 10.436 78.914 10.413 79.096 10.506C79.634 10.782 80.243 10.937 80.889 10.937C81.534 10.937 82.144 10.782 82.681 10.506C82.863 10.413 83.087 10.436 83.232 10.581L84.831 12.179Z" fill="#747686"/>
<path opacity="0.5" d="M84.779 1.17999C84.998 1.32599 85.017 1.63501 84.831 1.82101L83.232 3.41901C83.087 3.56401 82.863 3.58701 82.681 3.49301C82.144 3.21801 81.534 3.06201 80.889 3.06201C78.714 3.06201 76.951 4.825 76.951 7C76.951 7.646 77.107 8.255 77.382 8.793C77.475 8.975 77.452 9.19899 77.308 9.34299L75.709 10.942C75.523 11.128 75.215 11.109 75.069 10.891C74.323 9.77799 73.889 8.44 73.889 7C73.889 3.134 77.023 0 80.889 0C82.328 0 83.667 0.434993 84.779 1.17999Z" fill="#747686"/>
<path fill-rule="evenodd" clip-rule="evenodd" d="M96.748 1.422C96.748 1.361 96.797 1.31201 96.858 1.31201H98.498C98.559 1.31201 98.608 1.361 98.608 1.422V12.578C98.608 12.639 98.559 12.688 98.498 12.688H96.858C96.797 12.688 96.748 12.639 96.748 12.578V1.422ZM94.433 10.321C94.39 10.284 94.324 10.286 94.283 10.326C94.027 10.567 93.727 10.76 93.399 10.895C93.039 11.043 92.652 11.117 92.262 11.114C91.932 11.124 91.604 11.067 91.297 10.948C90.991 10.829 90.713 10.65 90.479 10.421C90.056 9.98899 89.812 9.37199 89.812 8.63599C89.812 7.16299 90.792 6.15601 92.262 6.15601C92.656 6.15101 93.047 6.23001 93.406 6.39001C93.731 6.53401 94.023 6.74101 94.266 6.99701C94.307 7.04101 94.376 7.04599 94.421 7.00699L95.529 6.048C95.574 6.009 95.58 5.941 95.54 5.896C94.707 4.965 93.401 4.48401 92.16 4.48401C89.661 4.48401 87.889 6.16999 87.889 8.64999C87.889 9.87699 88.33 10.91 89.072 11.639C89.815 12.368 90.873 12.797 92.094 12.797C93.625 12.797 94.857 12.21 95.579 11.457C95.621 11.413 95.617 11.342 95.57 11.302L94.433 10.321ZM107.645 9.18201C107.639 9.23701 107.593 9.27802 107.538 9.27802H101.79C101.721 9.27802 101.669 9.343 101.687 9.41C101.973 10.47 102.825 11.111 103.989 11.111C104.381 11.12 104.77 11.039 105.125 10.875C105.456 10.723 105.75 10.503 105.987 10.23C106.015 10.197 106.065 10.192 106.099 10.22L107.254 11.226C107.298 11.265 107.304 11.331 107.267 11.376C106.569 12.199 105.439 12.797 103.888 12.797C101.501 12.797 99.702 11.144 99.702 8.634C99.702 7.402 100.126 6.37001 100.832 5.64001C101.205 5.26501 101.653 4.969 102.146 4.771C102.64 4.572 103.17 4.47499 103.703 4.48499C106.122 4.48499 107.686 6.186 107.686 8.535C107.683 8.751 107.669 8.96701 107.645 9.18201ZM101.721 7.65799C101.701 7.72499 101.753 7.79099 101.824 7.79099H105.645C105.716 7.79099 105.768 7.72501 105.748 7.65701C105.488 6.75601 104.827 6.15399 103.801 6.15399C103.499 6.14499 103.198 6.199 102.92 6.314C102.642 6.429 102.392 6.60201 102.188 6.82101C101.973 7.06401 101.814 7.34999 101.721 7.65799ZM113.372 4.48599C113.433 4.48499 113.483 4.534 113.483 4.595V6.43201C113.483 6.49501 113.429 6.54599 113.365 6.54099C113.188 6.52799 113.02 6.517 112.91 6.517C111.479 6.517 110.639 7.52401 110.639 8.84601V12.578C110.639 12.639 110.59 12.688 110.53 12.688H108.889C108.829 12.688 108.78 12.639 108.78 12.578V4.70901C108.78 4.64801 108.829 4.599 108.889 4.599H110.53C110.59 4.599 110.639 4.64801 110.639 4.70901V5.81299C110.639 5.81899 110.644 5.82401 110.65 5.82401C110.654 5.82401 110.657 5.82301 110.659 5.82001C111.301 4.96301 112.247 4.487 113.247 4.487L113.372 4.48599ZM117.816 9.29599C117.823 9.28899 117.832 9.285 117.842 9.285C117.855 9.285 117.866 9.291 117.872 9.302L119.947 12.636C119.967 12.668 120.002 12.687 120.04 12.687H121.905C121.99 12.687 122.043 12.593 121.998 12.521L119.152 7.92899C119.126 7.88699 119.131 7.834 119.164 7.798L121.906 4.772C121.969 4.702 121.919 4.58899 121.825 4.58899H119.879C119.848 4.58899 119.819 4.602 119.798 4.625L116.626 8.08301C116.558 8.15701 116.436 8.109 116.436 8.009V1.422C116.436 1.361 116.387 1.31201 116.327 1.31201H114.686C114.626 1.31201 114.577 1.361 114.577 1.422V12.578C114.577 12.639 114.626 12.687 114.686 12.687H116.327C116.387 12.687 116.436 12.639 116.436 12.578V10.823C116.436 10.795 116.446 10.768 116.465 10.748L117.816 9.29599Z" fill="#747686"/>
</svg>
