<svg width="12" height="12" viewBox="0 0 12 12" fill="none" xmlns="http://www.w3.org/2000/svg">
<path fill-rule="evenodd" clip-rule="evenodd" d="M0.6008 0.604004C0.9854 0.217004 1.5071 0 2.0511 0H5.4681C6.0121 0 6.5338 0.217004 6.9185 0.604004C7.3032 0.991004 7.5193 1.51501 7.5193 2.06201V2.75101C7.5193 3.16501 7.1853 3.50101 6.7734 3.50101C6.3615 3.50101 6.0275 3.16501 6.0275 2.75101V2.06201C6.0275 1.91301 5.9686 1.77001 5.8637 1.66501C5.7588 1.55901 5.6165 1.5 5.4681 1.5H2.0511C1.9028 1.5 1.7605 1.55901 1.6556 1.66501C1.5507 1.77001 1.4917 1.91301 1.4917 2.06201V9.93799C1.4917 10.087 1.5507 10.23 1.6556 10.335C1.7605 10.441 1.9028 10.5 2.0511 10.5H5.4681C5.6165 10.5 5.7588 10.441 5.8637 10.335C5.9686 10.23 6.0275 10.087 6.0275 9.93799V9.26599C6.0275 8.85099 6.3615 8.51599 6.7734 8.51599C7.1853 8.51599 7.5193 8.85099 7.5193 9.26599V9.93799C7.5193 10.485 7.3032 11.009 6.9185 11.396C6.5338 11.783 6.0121 12 5.4681 12H2.0511C1.5071 12 0.9854 11.783 0.6008 11.396C0.2161 11.009 0 10.485 0 9.93799V2.06201C0 1.51501 0.2161 0.991004 0.6008 0.604004ZM8.9864 3.72C9.2776 3.427 9.7499 3.427 10.0412 3.72L11.7815 5.47C12.0728 5.763 12.0728 6.237 11.7815 6.53L10.0412 8.28C9.7499 8.573 9.2776 8.573 8.9864 8.28C8.6951 7.987 8.6951 7.513 8.9864 7.22L9.4534 6.75H3.8576C3.4456 6.75 3.1117 6.414 3.1117 6C3.1117 5.586 3.4456 5.25 3.8576 5.25H9.4534L8.9864 4.78C8.6951 4.487 8.6951 4.013 8.9864 3.72Z" fill="#9394A1"/>
</svg>
