<svg width="12" height="12" viewBox="0 0 12 12" fill="none" xmlns="http://www.w3.org/2000/svg">
<path fill-rule="evenodd" clip-rule="evenodd" d="M0.601013 0.603996C0.985013 0.216996 1.50699 0 2.05099 0H5.46799C6.01199 0 6.534 0.216996 6.918 0.603996C7.303 0.990996 7.51901 1.515 7.51901 2.062V2.751C7.51901 3.165 7.18501 3.501 6.77301 3.501C6.36101 3.501 6.02802 3.165 6.02802 2.751V2.062C6.02802 1.913 5.96901 1.77 5.86401 1.665C5.75901 1.559 5.61599 1.5 5.46799 1.5H2.05099C1.90299 1.5 1.76001 1.559 1.65601 1.665C1.55101 1.77 1.492 1.913 1.492 2.062V9.938C1.492 10.087 1.55101 10.23 1.65601 10.335C1.76001 10.441 1.90299 10.5 2.05099 10.5H5.46799C5.61599 10.5 5.75901 10.441 5.86401 10.335C5.96901 10.23 6.02802 10.087 6.02802 9.938V9.266C6.02802 8.851 6.36101 8.516 6.77301 8.516C7.18501 8.516 7.51901 8.851 7.51901 9.266V9.938C7.51901 10.485 7.303 11.009 6.918 11.396C6.534 11.783 6.01199 12 5.46799 12H2.05099C1.50699 12 0.985013 11.783 0.601013 11.396C0.216013 11.009 0 10.485 0 9.938V2.062C0 1.515 0.216013 0.990996 0.601013 0.603996ZM8.98599 3.72C9.27799 3.427 9.74999 3.427 10.041 3.72L11.782 5.47C12.073 5.763 12.073 6.237 11.782 6.53L10.041 8.28C9.74999 8.573 9.27799 8.573 8.98599 8.28C8.69499 7.987 8.69499 7.513 8.98599 7.22L9.453 6.75H3.858C3.446 6.75 3.112 6.414 3.112 6C3.112 5.586 3.446 5.25 3.858 5.25H9.453L8.98599 4.78C8.69499 4.487 8.69499 4.013 8.98599 3.72Z" fill="#42434D"/>
</svg>
